<?xml version="1.0" encoding="UTF-8"?>
<!DOCTYPE svg PUBLIC "-//W3C//DTD SVG 1.1//EN" "http://www.w3.org/Graphics/SVG/1.1/DTD/svg11.dtd">
<!-- Creator: CorelDRAW -->
<svg xmlns="http://www.w3.org/2000/svg" xml:space="preserve" width="149.862mm" height="27.4736mm" version="1.1" style="shape-rendering:geometricPrecision; text-rendering:geometricPrecision; image-rendering:optimizeQuality; fill-rule:evenodd; clip-rule:evenodd"
viewBox="0 0 14978.62 2745.97"
 xmlns:xlink="http://www.w3.org/1999/xlink"
 xmlns:xodm="http://www.corel.com/coreldraw/odm/2003">
 <defs>
  <style type="text/css">
   <![CDATA[
    .fil0 {fill:#F4F2F0;fill-rule:nonzero}
   ]]>
  </style>
 </defs>
 <g id="Layer_x0020_1">
  <metadata id="CorelCorpID_0Corel-Layer"/>
  <g id="_2091731307696">
   <path class="fil0" d="M1146.65 563.42c-312.04,0 -574.45,159.51 -703.39,427.2l-10.61 0 -52.32 -366.17c-1.73,-12.23 -12.38,-21.51 -24.79,-21.51l-330.49 0c-13.82,0 -25.04,11.25 -25.04,25.07l0 2053.32c0,13.82 11.21,25.07 25.04,25.07l380.1 0c13.82,0 25.07,-11.24 25.07,-25.07l0 -1078.07c0,-395.43 225.92,-661.07 562.18,-661.07 303.77,0 451.39,170.97 451.39,522.61l0 1216.53c0,13.82 11.24,25.07 25.07,25.07l384.06 0c13.82,0 25.07,-11.24 25.07,-25.07l0 -1256.09c0,-539.62 -273.4,-861.81 -731.32,-861.81z"/>
   <path class="fil0" d="M4845.47 1654.67c0,439.52 -221.5,712.5 -578.01,712.5 -358.94,0 -581.95,-271.46 -581.95,-708.54 0,-441.91 223.02,-716.44 581.95,-716.44 356.51,0 578.01,273.01 578.01,712.48zm-578.01 -1091.25c-302.67,0 -551.67,103.7 -740.17,308.24 -185.71,201.55 -279.89,467.65 -279.89,790.94 0,322.49 91.53,578.66 279.96,783.09 187.28,199.25 436.28,300.27 740.1,300.27 301.19,0 548.85,-101.02 736.23,-300.34 191,-207.26 283.84,-464.69 283.84,-787 0,-320.44 -95.48,-586.5 -283.84,-790.91 -188.71,-204.76 -429.54,-304.3 -736.23,-304.3z"/>
   <path class="fil0" d="M6706.2 602.95l-431.55 0c-1.23,0 -2.26,-0.99 -2.26,-2.26l0 -575.66c0,-13.35 -10.55,-24.36 -23.78,-25.04l-1.37 0 -383.98 136.6c-13.81,0 -25.03,11.28 -25.03,25.07l0 439.03c0,1.27 -1.06,2.26 -2.3,2.26l-320.79 0c-13.79,0 -25.04,11.24 -25.04,25.07l0 312.86c0,13.82 11.24,25.04 25.04,25.04l320.79 0c1.24,0 2.3,1.02 2.3,2.29l0 1145.34c0,414.41 199.46,624.52 592.86,624.52 92.09,0 186.35,-9.98 280.18,-29.58 11.56,-2.44 19.95,-12.8 19.95,-24.72l0 -303.28c0,-7.69 -3.45,-14.8 -9.45,-19.53 -6.11,-4.8 -14,-6.56 -21.69,-4.69 -41.43,9.87 -96.01,14.84 -162.2,14.84 -221.08,0 -265.51,-115.19 -265.51,-301.12l0 -1101.79c0,-1.27 1.03,-2.29 2.26,-2.29l431.55 0c13.81,0 25.03,-11.21 25.03,-25.04l0 -312.86c0,-13.82 -11.21,-25.07 -25.03,-25.07z"/>
   <path class="fil0" d="M8313.92 563.42c-313.22,0 -569.13,152.7 -703.22,419.31l-9.28 0 0 -957.69c0,-13.78 -11.21,-25.04 -25.08,-25.04l-380.1 0c-13.78,0 -25.04,11.25 -25.04,25.04l0 2656.29c0,13.82 11.25,25.07 25.04,25.07l380.1 0c13.86,0 25.08,-11.24 25.08,-25.07l0 -1089.96c0,-394.33 220.69,-649.19 562.18,-649.19 296.92,0 447.48,174.5 447.48,518.67l0 1220.48c0,13.82 11.2,25.07 25.03,25.07l384.06 0c13.82,0 25.07,-11.24 25.07,-25.07l0 -1260.01c0,-537.18 -273.4,-857.89 -731.32,-857.89z"/>
   <path class="fil0" d="M9935.76 1438.92c17.49,-318.57 234.76,-524.41 553.61,-524.41 326.86,0 517.3,191.18 521.75,526.28 -0.28,0.31 -0.88,0.77 -1.73,0.77l-1071.13 0 -2.5 -2.64zm1494.06 607.84l-380.35 0c-11.1,0 -20.91,7.58 -23.84,18.44 -55.11,203.31 -254.54,329.64 -520.44,329.64 -358.42,0 -573.04,-237.44 -574.1,-635.17l2.51 -2.65 1469.52 0c12.37,0 23.09,-9.17 24.93,-21.37 12.37,-81.09 18.12,-150.76 18.12,-219.42 0,-587.73 -363.64,-952.82 -948.88,-952.82 -299.92,0 -544.97,101.02 -728.4,300.42 -180.45,200.49 -271.87,469.23 -271.87,798.76 0,327.14 92.83,591.94 275.97,787.03 184.58,196.61 429.6,296.33 728.25,296.33 251.26,0 466.45,-63.3 639.59,-188.07 169.31,-122.07 274.88,-283.85 313.84,-480.88 1.49,-7.41 -0.46,-15.02 -5.29,-20.95 -4.87,-5.89 -11.98,-9.31 -19.57,-9.31z"/>
   <path class="fil0" d="M13030.29 571.41c-323.59,4.23 -546.21,154.58 -661.89,446.92l-5.89 0 -48.73 -393.36c-1.56,-12.55 -12.24,-22.01 -24.86,-22.01l-330.28 0c-13.79,0 -25.07,11.25 -25.07,25.04l0 2053.35c0,13.79 11.27,25.07 25.07,25.07l380.14 0c13.78,0 25.04,-11.27 25.04,-25.07l0 -927.79c0,-518.63 224.63,-786.22 667.63,-795.32 13.57,-0.32 24.58,-11.45 24.58,-24.82l0 -336.7c0,-6.77 -2.68,-13.11 -7.55,-17.95 -4.83,-4.76 -11.03,-6.81 -18.19,-7.37z"/>
   <path class="fil0" d="M14415.48 1501.07l-396.08 -71.26c-203.45,-26.87 -306.58,-113.56 -306.58,-257.7 0,-173.69 142.17,-277.36 380.21,-277.36 260.47,0 398.83,103.85 411.31,308.63 0.78,13.25 11.63,23.63 24.68,23.63l368.29 0c6.84,0 13.57,-2.9 18.37,-7.94 4.76,-5.05 7.34,-11.84 6.99,-18.69 -19.93,-392.9 -336.24,-636.97 -825.65,-636.97 -504.78,0 -818.34,248.37 -818.34,648.25 0,312.14 194.77,504.84 578.9,572.89l423.26 79.09c176.51,33.39 251.76,108.15 251.76,249.89 0,188.56 -153.95,301.12 -411.84,301.12 -280.84,0 -452.49,-128.41 -459.12,-343.58 -0.46,-13.64 -11.28,-24.3 -24.75,-24.3l-372.35 0c-6.77,0 -13.18,2.72 -18.01,7.59 -4.8,4.94 -7.38,11.38 -7.27,18.19 7.82,414.69 344.49,672.56 878.86,673.41l5.19 0c518.71,-0.84 854.07,-254.16 855.33,-646.03l0 -5.47c-1.26,-325.64 -190.67,-525.33 -563.14,-593.4z"/>
   <polygon class="fil0" points="2494.46,1918.27 2624.09,1918.27 2634.76,1918.27 2634.76,1239.34 2494.46,1239.34 "/>
  </g>
 </g>
</svg>
