<?xml version="1.0" encoding="UTF-8"?>
<!DOCTYPE svg PUBLIC "-//W3C//DTD SVG 1.1//EN" "http://www.w3.org/Graphics/SVG/1.1/DTD/svg11.dtd">
<!-- Creator: CorelDRAW 2020 (64-Bit) -->
<svg xmlns="http://www.w3.org/2000/svg" xml:space="preserve" width="5.22956in" height="2.74943in" version="1.1" style="shape-rendering:geometricPrecision; text-rendering:geometricPrecision; image-rendering:optimizeQuality; fill-rule:evenodd; clip-rule:evenodd"
viewBox="0 0 84.75 44.55"
 xmlns:xlink="http://www.w3.org/1999/xlink"
 xmlns:xodm="http://www.corel.com/coreldraw/odm/2003">
 <defs>
  <style type="text/css">
   <![CDATA[
    .fil0 {fill:#E2E3E4}
    .fil1 {fill:#E2E3E4;fill-rule:nonzero}
   ]]>
  </style>
 </defs>
 <g id="Layer_x0020_1">
  <metadata id="CorelCorpID_0Corel-Layer"/>
  <path class="fil0" d="M0 31.09l11.56 0c-2.89,-3.7 -6.51,-6.46 -7.95,-4.62l-3.61 4.62z"/>
  <path class="fil0" d="M80.19 26.48l3.61 4.62 -11.56 0c2.89,-3.7 6.51,-6.46 7.95,-4.62z"/>
  <path class="fil0" d="M7.94 20.93c0.85,-1.09 4.29,0.04 7.61,4.18l4.67 5.98 11.56 0 -10.11 -12.94c-2.89,-3.7 -6.51,-6.47 -7.96,-4.62l-5.78 7.4z"/>
  <path class="fil0" d="M23.83 0.59l-5.78 7.4c0.85,-1.09 4.29,0.04 7.61,4.18l14.79 18.93 11.56 0 -20.22 -25.88c-2.89,-3.7 -6.51,-6.47 -7.96,-4.62z"/>
  <path class="fil1" d="M59.96 0.59c-1.45,-1.84 -5.06,0.92 -7.95,4.63l-7.22 9.24 5.78 7.4 7.56 -9.68c3.32,-4.14 6.76,-5.27 7.61,-4.18l-5.78 -7.4z"/>
  <path class="fil0" d="M70.07 13.53l5.78 7.4c-1.44,-1.85 -5.06,0.92 -7.96,4.62l-4.33 5.54 -5.78 0 -2.89 -3.7 7.22 -9.24c2.89,-3.7 6.51,-6.47 7.96,-4.62z"/>
  <path class="fil1" d="M65.81 43.14l-2.79 0 -0.52 1.28 -1.91 0 2.92 -6.61 1.84 0 2.93 6.61 -1.94 0 -0.52 -1.28zm-0.55 -1.38l-0.85 -2.12 -0.85 2.12 1.7 0z"/>
  <path class="fil1" d="M55.73 44.55c-0.69,0 -1.31,-0.15 -1.86,-0.44 -0.55,-0.29 -0.98,-0.7 -1.3,-1.22 -0.31,-0.52 -0.47,-1.11 -0.47,-1.78 0,-0.66 0.16,-1.25 0.47,-1.77 0.31,-0.52 0.75,-0.93 1.3,-1.22 0.55,-0.29 1.17,-0.44 1.86,-0.44 0.6,0 1.15,0.11 1.63,0.32 0.48,0.21 0.89,0.52 1.21,0.93l-1.19 1.08c-0.43,-0.52 -0.95,-0.77 -1.56,-0.77 -0.36,0 -0.68,0.08 -0.96,0.24 -0.28,0.16 -0.5,0.38 -0.65,0.67 -0.15,0.29 -0.23,0.62 -0.23,0.99 0,0.37 0.08,0.7 0.23,0.99 0.15,0.29 0.37,0.51 0.65,0.67 0.28,0.16 0.6,0.24 0.96,0.24 0.61,0 1.13,-0.26 1.56,-0.77l1.19 1.08c-0.32,0.4 -0.72,0.71 -1.21,0.93 -0.49,0.21 -1.03,0.32 -1.63,0.32z"/>
  <polygon class="fil1" points="47.49,37.81 49.36,37.81 49.36,44.42 47.49,44.42 "/>
  <polygon class="fil1" points="44.26,37.81 44.26,44.42 42.72,44.42 39.8,40.9 39.8,44.42 37.97,44.42 37.97,37.81 39.51,37.81 42.43,41.34 42.43,37.81 "/>
  <path class="fil1" d="M32.89 43.14l-2.79 0 -0.52 1.28 -1.91 0 2.92 -6.61 1.84 0 2.93 6.61 -1.94 0 -0.52 -1.28zm-0.55 -1.38l-0.85 -2.12 -0.85 2.12 1.7 0z"/>
  <path class="fil1" d="M22.81 44.55c-0.69,0 -1.31,-0.15 -1.86,-0.44 -0.55,-0.29 -0.98,-0.7 -1.3,-1.22 -0.31,-0.52 -0.47,-1.11 -0.47,-1.78 0,-0.66 0.16,-1.25 0.47,-1.77 0.31,-0.52 0.75,-0.93 1.3,-1.22 0.55,-0.29 1.17,-0.44 1.86,-0.44 0.6,0 1.15,0.11 1.63,0.32 0.49,0.21 0.89,0.52 1.21,0.93l-1.19 1.08c-0.43,-0.52 -0.95,-0.77 -1.56,-0.77 -0.36,0 -0.68,0.08 -0.96,0.24 -0.28,0.16 -0.5,0.38 -0.65,0.67 -0.15,0.29 -0.23,0.62 -0.23,0.99 0,0.37 0.08,0.7 0.23,0.99 0.15,0.29 0.37,0.51 0.65,0.67 0.28,0.16 0.6,0.24 0.96,0.24 0.61,0 1.13,-0.26 1.56,-0.77l1.19 1.08c-0.32,0.4 -0.72,0.71 -1.21,0.93 -0.48,0.21 -1.03,0.32 -1.63,0.32z"/>
  <polygon class="fil1" points="16.4,42.98 16.4,44.42 11.1,44.42 11.1,37.81 16.28,37.81 16.28,39.26 12.95,39.26 12.95,40.37 15.88,40.37 15.88,41.77 12.95,41.77 12.95,42.98 "/>
  <polygon class="fil1" points="5.97,44.42 5.95,40.92 4.25,43.77 3.42,43.77 1.73,41.01 1.73,44.42 -0,44.42 -0,37.81 1.54,37.81 3.86,41.63 6.13,37.81 7.67,37.81 7.69,44.42 "/>
  <polygon class="fil1" points="84.75,43.16 83.76,43.16 83.76,44.42 81.94,44.42 81.94,43.16 78.45,43.16 78.45,41.94 80.06,37.81 82,37.81 80.66,41.68 82,41.68 82,40.55 83.76,40.55 83.76,41.68 84.75,41.68 "/>
  <polygon class="fil1" points="76.23,37.81 76.23,44.42 74.36,44.42 74.36,39.26 73.13,39.26 73.13,37.81 "/>
 </g>
</svg>
